<svg id="Layer_1" data-name="Layer 1" xmlns="http://www.w3.org/2000/svg" viewBox="0 0 902 221.7">
  <defs>
    <style>
      .cls-1 {
        fill: none;
      }

      .cls-2 {
        fill: #f42350;
      }
    </style>
  </defs>
  <path d="M126.24078,142.83452a20.82411,20.82411,0,0,0,2.589-10.797,15.20521,15.20521,0,0,0-1.768-7.64,16.22,16.22,0,0,0-4.672-5.178,25.22169,25.22169,0,0,0-6.63-3.347,76.62589,76.62589,0,0,0-7.641-2.147q-3.789-.882-7.451-1.641a57.86,57.86,0,0,1-6.504-1.705,13.63952,13.63952,0,0,1-4.609-2.463,4.9115,4.9115,0,0,1-1.768-3.915,4.83247,4.83247,0,0,1,1.01-3.22,6.64241,6.64241,0,0,1,2.463-1.831,10.92849,10.92849,0,0,1,3.22-.821,31.028,31.028,0,0,1,3.284-.19,17.91129,17.91129,0,0,1,8.335,1.832q3.534,1.8315,3.915,7.009h17.048a21.433,21.433,0,0,0-3.094-10.04,20.47245,20.47245,0,0,0-6.503-6.378,27.28868,27.28868,0,0,0-8.904-3.409,51.77447,51.77447,0,0,0-10.292-1.011,56.11158,56.11158,0,0,0-10.356.947,28.52468,28.52468,0,0,0-9.092,3.284,18.1597,18.1597,0,0,0-6.504,6.377,19.64905,19.64905,0,0,0-2.463,10.356,13.93682,13.93682,0,0,0,1.768,7.261,15.32677,15.32677,0,0,0,4.673,4.926,26.03377,26.03377,0,0,0,6.63,3.157q3.723,1.20148,7.64,2.083a107.49845,107.49845,0,0,1,14.965,4.042q5.367,2.0205,5.368,6.061a6.62837,6.62837,0,0,1-1.137,3.978,8.59219,8.59219,0,0,1-2.842,2.526,13.48557,13.48557,0,0,1-3.788,1.389,19.08848,19.08848,0,0,1-3.978.442,20.46789,20.46789,0,0,1-5.115-.631,13.25564,13.25564,0,0,1-4.357-1.958,10.493,10.493,0,0,1-3.094-3.409,9.82322,9.82322,0,0,1-1.199-4.989h-17.049a21.92662,21.92662,0,0,0,2.968,10.924,21.64616,21.64616,0,0,0,6.945,7.009,29.32961,29.32961,0,0,0,9.661,3.789,54.14825,54.14825,0,0,0,11.114,1.136,55.69633,55.69633,0,0,0,10.923-1.073,27.66405,27.66405,0,0,0,9.535-3.726,20.71589,20.71589,0,0,0,6.756-7.009m23.404-14.965a35.45908,35.45908,0,0,1-.758-7.198,37.01784,37.01784,0,0,1,.758-7.388,21.80967,21.80967,0,0,1,2.589-6.819,15.55053,15.55053,0,0,1,4.736-5.052,12.595,12.595,0,0,1,7.198-1.957q11.49,0,13.26,11.24h17.554a23.83715,23.83715,0,0,0-9.914-18.628,29.85032,29.85032,0,0,0-9.597-4.609,40.92544,40.92544,0,0,0-11.177-1.516,35.60694,35.60694,0,0,0-14.144,2.652,29.75166,29.75166,0,0,0-10.482,7.388,31.652,31.652,0,0,0-6.504,11.24,43.4819,43.4819,0,0,0-2.21,14.081,36.55541,36.55541,0,0,0,2.4,13.449,31.28635,31.28635,0,0,0,6.693,10.545,29.78082,29.78082,0,0,0,10.419,6.883,35.7411,35.7411,0,0,0,13.449,2.462q13.00648,0,21.343-6.819,8.334-6.8205,10.103-19.827h-17.302a17.03332,17.03332,0,0,1-4.357,9.661q-3.474,3.59851-9.913,3.599a12.67447,12.67447,0,0,1-7.072-1.894,14.13542,14.13542,0,0,1-4.61-4.862,22.26568,22.26568,0,0,1-2.462-6.631m91.799-.126a34.5909,34.5909,0,0,1-.316,4.041,13.53888,13.53888,0,0,1-1.705,4.989,11.83987,11.83987,0,0,1-4.293,4.23q-2.907,1.77-8.209,1.768a22.51585,22.51585,0,0,1-4.168-.379,10.09716,10.09716,0,0,1-3.535-1.326,6.7493,6.7493,0,0,1-2.4-2.589,8.41936,8.41936,0,0,1-.884-4.041,8.72843,8.72843,0,0,1,.884-4.167,8.09668,8.09668,0,0,1,2.336-2.715,11.77594,11.77594,0,0,1,3.41-1.705,32.36437,32.36437,0,0,1,3.978-1.01q2.1465-.3795,4.294-.632,2.145-.252,4.104-.631a29.07986,29.07986,0,0,0,3.662-.948,8.00821,8.00821,0,0,0,2.842-1.578Zm2.021,25.257h18.185a15.22851,15.22851,0,0,1-1.768-6.061,67.98626,67.98626,0,0,1-.505-8.462v-33.971q0-5.934-2.652-9.534a18.173,18.173,0,0,0-6.82-5.62,30.57945,30.57945,0,0,0-9.219-2.715,73.34666,73.34666,0,0,0-9.977-.694,54.96771,54.96771,0,0,0-10.797,1.073,30.82547,30.82547,0,0,0-9.661,3.599,21.49663,21.49663,0,0,0-7.072,6.693,20.8192,20.8192,0,0,0-3.157,10.482h17.933q.50252-5.304,3.536-7.577,3.03-2.274,8.335-2.274a30.17645,30.17645,0,0,1,4.483.316,9.96289,9.96289,0,0,1,3.662,1.263,6.98132,6.98132,0,0,1,2.526,2.652,9.52485,9.52485,0,0,1,.947,4.61,4.85241,4.85241,0,0,1-1.642,4.23,12.10181,12.10181,0,0,1-4.799,2.21,47.94143,47.94143,0,0,1-6.945,1.137q-3.91649.378-7.957,1.01a76.12011,76.12011,0,0,0-8.019,1.705,22.66186,22.66186,0,0,0-7.072,3.22,16.36142,16.36142,0,0,0-5.051,5.746,19.02791,19.02791,0,0,0-1.958,9.156,20.50216,20.50216,0,0,0,1.705,8.714,16.44493,16.44493,0,0,0,4.736,6.062,19.94148,19.94148,0,0,0,7.072,3.536,32.09085,32.09085,0,0,0,8.714,1.136,40.58067,40.58067,0,0,0,11.871-1.768,23.363,23.363,0,0,0,10.103-6.188,26.53852,26.53852,0,0,0,.442,3.22,25.14406,25.14406,0,0,0,.821,3.094m61.616-50.198q1.767.189,3.031.442v-16.67a14.00031,14.00031,0,0,0-3.915-.632,21.42906,21.42906,0,0,0-6.567,1.011,24.09857,24.09857,0,0,0-5.935,2.841,22.39785,22.39785,0,0,0-4.926,4.42,54.80115,54.80115,0,0,0-3.662,5.62v-12.124h-17.049v65.291h17.933v-29.425a36.05964,36.05964,0,0,1,.884-8.209,17.95257,17.95257,0,0,1,2.968-6.63,14.44131,14.44131,0,0,1,5.493-4.483,19.12761,19.12761,0,0,1,8.335-1.642,31.88841,31.88841,0,0,1,3.41.19m8.065,50.199h17.933v-84.865h-17.933Zm70.389-39.654h-29.172a20.449,20.449,0,0,1,.821-4.294,13.198,13.198,0,0,1,2.399-4.547,13.61506,13.61506,0,0,1,4.546-3.599,15.62054,15.62054,0,0,1,7.136-1.452q6.564,0,9.787,3.536,3.2205,3.537,4.483,10.356m16.67-3.158a35.59049,35.59049,0,0,0-5.746-12.376,29.01853,29.01853,0,0,0-10.166-8.65,31.04775,31.04775,0,0,0-14.523-3.22,33.80906,33.80906,0,0,0-13.576,2.651,31.56353,31.56353,0,0,0-17.364,18.186,38.05617,38.05617,0,0,0-2.4,13.639,39.73955,39.73955,0,0,0,2.336,13.891,31.50641,31.50641,0,0,0,6.631,10.861,28.86462,28.86462,0,0,0,10.481,7.009,37.30111,37.30111,0,0,0,13.892,2.462q11.11052,0,18.943-5.051,7.82854-5.0505,11.618-16.796h-15.786q-.885,3.03-4.798,5.746a15.98772,15.98772,0,0,1-9.346,2.715q-7.57648,0-11.618-3.915-4.04252-3.91349-4.42-12.629h47.105a46.16777,46.16777,0,0,0-1.263-14.523m63.412,21.848v-34.346h13.134v-11.997h-13.134v-17.558h-17.933v17.558h-17.477v-17.558h-17.933v17.558h-10.86v11.997h10.86v40.534a16.67637,16.67637,0,0,0,1.642,7.956,11.68021,11.68021,0,0,0,4.483,4.673,18.60872,18.60872,0,0,0,6.567,2.21,52.33136,52.33136,0,0,0,7.893.568q2.652,0,5.431-.126a42.99782,42.99782,0,0,0,5.051-.505v-13.892a24.45353,24.45353,0,0,1-2.652.379q-1.39051.12749-2.905.126-4.54651,0-6.061-1.515-1.51647-1.51651-1.516-6.062v-34.346h17.477v40.534a16.67636,16.67636,0,0,0,1.642,7.956,11.67985,11.67985,0,0,0,4.483,4.673,18.60882,18.60882,0,0,0,6.567,2.21,52.33173,52.33173,0,0,0,7.893.568q2.652,0,5.43-.126a42.993,42.993,0,0,0,5.052-.505v-13.892a24.488,24.488,0,0,1-2.652.379c-.928.085-1.894.126-2.905.126q-4.54651,0-6.061-1.515-1.51653-1.51651-1.516-6.062"/>
  <path class="cls-1" d="M889.98976,117.69351a20.824,20.824,0,0,0-10.797-2.589,15.20521,15.20521,0,0,0-7.64,1.768,16.22,16.22,0,0,0-5.178,4.672,25.22176,25.22176,0,0,0-3.347,6.63,76.62513,76.62513,0,0,0-2.147,7.641q-.882,3.789-1.641,7.451a57.858,57.858,0,0,1-1.705,6.504,13.63921,13.63921,0,0,1-2.463,4.609,4.91145,4.91145,0,0,1-3.915,1.768,4.83244,4.83244,0,0,1-3.22-1.01,6.64241,6.64241,0,0,1-1.831-2.463,10.92818,10.92818,0,0,1-.821-3.22,31.028,31.028,0,0,1-.19-3.284,17.91129,17.91129,0,0,1,1.832-8.335q1.8315-3.534,7.009-3.915v-17.048a21.43281,21.43281,0,0,0-10.04,3.094,20.47249,20.47249,0,0,0-6.378,6.503,27.28838,27.28838,0,0,0-3.409,8.904,51.7738,51.7738,0,0,0-1.011,10.292,56.11228,56.11228,0,0,0,.947,10.356,28.52484,28.52484,0,0,0,3.284,9.092,18.15973,18.15973,0,0,0,6.377,6.504,19.64906,19.64906,0,0,0,10.356,2.463,13.93676,13.93676,0,0,0,7.261-1.768,15.32674,15.32674,0,0,0,4.926-4.673,26.03319,26.03319,0,0,0,3.157-6.63q1.2015-3.723,2.083-7.64a107.49825,107.49825,0,0,1,4.042-14.965q2.0205-5.367,6.061-5.368a6.62832,6.62832,0,0,1,3.978,1.137,8.59219,8.59219,0,0,1,2.526,2.842,13.48557,13.48557,0,0,1,1.389,3.788,19.08839,19.08839,0,0,1,.442,3.978,20.46783,20.46783,0,0,1-.631,5.115,13.25569,13.25569,0,0,1-1.958,4.357,10.49307,10.49307,0,0,1-3.409,3.094,9.82325,9.82325,0,0,1-4.989,1.199v17.049a21.92672,21.92672,0,0,0,10.924-2.968,21.64609,21.64609,0,0,0,7.009-6.945,29.32944,29.32944,0,0,0,3.789-9.661,54.14815,54.14815,0,0,0,1.136-11.114,55.69633,55.69633,0,0,0-1.073-10.923,27.664,27.664,0,0,0-3.726-9.535,20.7158,20.7158,0,0,0-7.009-6.756"/>
  <path class="cls-1" d="M56.98976,98.69351a20.824,20.824,0,0,0-10.797-2.589,15.20521,15.20521,0,0,0-7.64,1.768,16.22,16.22,0,0,0-5.178,4.672,25.22176,25.22176,0,0,0-3.347,6.63,76.62513,76.62513,0,0,0-2.147,7.641q-.882,3.789-1.641,7.451a57.858,57.858,0,0,1-1.705,6.504,13.63921,13.63921,0,0,1-2.463,4.609,4.91145,4.91145,0,0,1-3.915,1.768,4.83244,4.83244,0,0,1-3.22-1.01,6.64241,6.64241,0,0,1-1.831-2.463,10.92818,10.92818,0,0,1-.821-3.22,31.028,31.028,0,0,1-.19-3.284,17.91129,17.91129,0,0,1,1.832-8.335q1.8315-3.534,7.009-3.915V97.8725a21.43281,21.43281,0,0,0-10.04,3.094,20.47249,20.47249,0,0,0-6.378,6.503,27.28838,27.28838,0,0,0-3.409,8.904,51.7738,51.7738,0,0,0-1.011,10.292,56.11228,56.11228,0,0,0,.947,10.356,28.52484,28.52484,0,0,0,3.284,9.092,18.15973,18.15973,0,0,0,6.377,6.504,19.64906,19.64906,0,0,0,10.356,2.463,13.93676,13.93676,0,0,0,7.261-1.768,15.32674,15.32674,0,0,0,4.926-4.673,26.03319,26.03319,0,0,0,3.157-6.63q1.2015-3.723,2.083-7.64a107.49825,107.49825,0,0,1,4.042-14.965q2.0205-5.367,6.061-5.368a6.62832,6.62832,0,0,1,3.978,1.137,8.59219,8.59219,0,0,1,2.526,2.842,13.48557,13.48557,0,0,1,1.389,3.788,19.08839,19.08839,0,0,1,.442,3.978,20.46783,20.46783,0,0,1-.631,5.115,13.25569,13.25569,0,0,1-1.958,4.357,10.49307,10.49307,0,0,1-3.409,3.094,9.82325,9.82325,0,0,1-4.989,1.199v17.049a21.92672,21.92672,0,0,0,10.924-2.968,21.64609,21.64609,0,0,0,7.009-6.945,29.32944,29.32944,0,0,0,3.789-9.661,54.14815,54.14815,0,0,0,1.136-11.114,55.69633,55.69633,0,0,0-1.073-10.923,27.664,27.664,0,0,0-3.726-9.535,20.7158,20.7158,0,0,0-7.009-6.756"/>
  <path class="cls-1" d="M462.60425,56.392a20.824,20.824,0,0,0,2.589-10.797,15.20521,15.20521,0,0,0-1.768-7.64,16.22012,16.22012,0,0,0-4.672-5.178,25.22176,25.22176,0,0,0-6.63-3.347,76.62513,76.62513,0,0,0-7.641-2.147q-3.789-.882-7.451-1.641a57.86,57.86,0,0,1-6.504-1.705,13.63952,13.63952,0,0,1-4.609-2.463,4.9115,4.9115,0,0,1-1.768-3.915,4.83247,4.83247,0,0,1,1.01-3.22,6.64241,6.64241,0,0,1,2.463-1.831,10.92849,10.92849,0,0,1,3.22-.821,31.028,31.028,0,0,1,3.284-.19,17.91129,17.91129,0,0,1,8.335,1.832q3.534,1.8315,3.915,7.009h17.048a21.433,21.433,0,0,0-3.094-10.04,20.47235,20.47235,0,0,0-6.503-6.378,27.28862,27.28862,0,0,0-8.904-3.409A51.77465,51.77465,0,0,0,434.63226-.5a56.11139,56.11139,0,0,0-10.356.947,28.52459,28.52459,0,0,0-9.092,3.284,18.15973,18.15973,0,0,0-6.504,6.377,19.64906,19.64906,0,0,0-2.463,10.356,13.93682,13.93682,0,0,0,1.768,7.261,15.3268,15.3268,0,0,0,4.673,4.926,26.03354,26.03354,0,0,0,6.63,3.157q3.723,1.20148,7.64,2.083a107.49845,107.49845,0,0,1,14.965,4.042q5.367,2.0205,5.368,6.061a6.62837,6.62837,0,0,1-1.137,3.978,8.59219,8.59219,0,0,1-2.842,2.526,13.48557,13.48557,0,0,1-3.788,1.389,19.08839,19.08839,0,0,1-3.978.442,20.46778,20.46778,0,0,1-5.115-.631,13.2556,13.2556,0,0,1-4.357-1.958,10.49307,10.49307,0,0,1-3.094-3.409,9.82322,9.82322,0,0,1-1.199-4.989h-17.049a21.92672,21.92672,0,0,0,2.968,10.924,21.64609,21.64609,0,0,0,6.945,7.009,29.32944,29.32944,0,0,0,9.661,3.789,54.14808,54.14808,0,0,0,11.114,1.136,55.69633,55.69633,0,0,0,10.923-1.073,27.664,27.664,0,0,0,9.535-3.726,20.7158,20.7158,0,0,0,6.756-7.009"/>
  <path class="cls-1" d="M478.10425,209.892a20.824,20.824,0,0,0,2.589-10.797,15.20521,15.20521,0,0,0-1.768-7.64,16.22012,16.22012,0,0,0-4.672-5.178,25.22176,25.22176,0,0,0-6.63-3.347,76.62513,76.62513,0,0,0-7.641-2.147q-3.789-.882-7.451-1.641a57.86,57.86,0,0,1-6.504-1.705,13.63952,13.63952,0,0,1-4.609-2.463,4.9115,4.9115,0,0,1-1.768-3.915,4.83247,4.83247,0,0,1,1.01-3.22,6.64241,6.64241,0,0,1,2.463-1.831,10.92849,10.92849,0,0,1,3.22-.821,31.028,31.028,0,0,1,3.284-.19,17.91129,17.91129,0,0,1,8.335,1.832q3.534,1.8315,3.915,7.009h17.048a21.433,21.433,0,0,0-3.094-10.04,20.47235,20.47235,0,0,0-6.503-6.378,27.28862,27.28862,0,0,0-8.904-3.409,51.77465,51.77465,0,0,0-10.292-1.011,56.11139,56.11139,0,0,0-10.356.947,28.52459,28.52459,0,0,0-9.092,3.284,18.15973,18.15973,0,0,0-6.504,6.377,19.64906,19.64906,0,0,0-2.463,10.356,13.93682,13.93682,0,0,0,1.768,7.261,15.3268,15.3268,0,0,0,4.673,4.926,26.03354,26.03354,0,0,0,6.63,3.157q3.723,1.20149,7.64,2.083a107.49845,107.49845,0,0,1,14.965,4.042q5.367,2.0205,5.368,6.061a6.62837,6.62837,0,0,1-1.137,3.978,8.59219,8.59219,0,0,1-2.842,2.526,13.48557,13.48557,0,0,1-3.788,1.389,19.08839,19.08839,0,0,1-3.978.442,20.46778,20.46778,0,0,1-5.115-.631,13.2556,13.2556,0,0,1-4.357-1.958,10.49307,10.49307,0,0,1-3.094-3.409,9.82322,9.82322,0,0,1-1.199-4.989h-17.049a21.92672,21.92672,0,0,0,2.968,10.924,21.64609,21.64609,0,0,0,6.945,7.009,29.32944,29.32944,0,0,0,9.661,3.789,54.14808,54.14808,0,0,0,11.114,1.136,55.69633,55.69633,0,0,0,10.923-1.073,27.664,27.664,0,0,0,9.535-3.726,20.7158,20.7158,0,0,0,6.756-7.009"/>
  <path d="M522.87365,127.74342a34.59241,34.59241,0,0,1-.316,4.041,13.539,13.539,0,0,1-1.705,4.989,11.83549,11.83549,0,0,1-4.294,4.23q-2.90552,1.77-8.208,1.768a22.6023,22.6023,0,0,1-4.168-.378,10.123,10.123,0,0,1-3.536-1.327,6.75424,6.75424,0,0,1-2.399-2.589,8.41959,8.41959,0,0,1-.884-4.041,8.72872,8.72872,0,0,1,.884-4.167,8.09679,8.09679,0,0,1,2.336-2.715,11.76306,11.76306,0,0,1,3.41-1.705,32.36284,32.36284,0,0,1,3.978-1.01q2.1465-.37949,4.294-.632,2.145-.252,4.104-.631a29.08021,29.08021,0,0,0,3.662-.948,8.00822,8.00822,0,0,0,2.842-1.578Zm20.206,25.258a15.25382,15.25382,0,0,1-1.769-6.062,68.16522,68.16522,0,0,1-.505-8.462v-33.97q0-5.9355-2.652-9.535a18.17886,18.17886,0,0,0-6.819-5.62,30.61661,30.61661,0,0,0-9.219-2.715,73.34487,73.34487,0,0,0-9.977-.694,55.02851,55.02851,0,0,0-10.797,1.073,30.81581,30.81581,0,0,0-9.661,3.599,21.4965,21.4965,0,0,0-7.072,6.693,20.82238,20.82238,0,0,0-3.157,10.482h17.932q.504-5.304,3.536-7.577,3.0315-2.27249,8.335-2.273a30.17138,30.17138,0,0,1,4.483.315,9.97973,9.97973,0,0,1,3.663,1.263,6.97874,6.97874,0,0,1,2.525,2.652,9.51227,9.51227,0,0,1,.948,4.61,4.85241,4.85241,0,0,1-1.642,4.23,12.10169,12.10169,0,0,1-4.799,2.21,47.81771,47.81771,0,0,1-6.946,1.137q-3.915.378-7.956,1.01a76.11223,76.11223,0,0,0-8.019,1.705,22.6618,22.6618,0,0,0-7.072,3.22,16.36144,16.36144,0,0,0-5.051,5.746,19.0163,19.0163,0,0,0-1.958,9.156,20.48326,20.48326,0,0,0,1.705,8.714,16.43443,16.43443,0,0,0,4.736,6.062,19.93329,19.93329,0,0,0,7.072,3.536,32.04967,32.04967,0,0,0,8.713,1.136,40.58227,40.58227,0,0,0,11.872-1.768,23.35972,23.35972,0,0,0,10.102-6.188,26.39009,26.39009,0,0,0,.443,3.221,25.42015,25.42015,0,0,0,.82,3.094Zm50.684-40.538a20.80047,20.80047,0,0,0-2.77906-6.693,14.55283,14.55283,0,0,0-4.735-4.61,14.61653,14.61653,0,0,0-13.702,0,14.339,14.339,0,0,0-4.8,4.61,20.77658,20.77658,0,0,0-2.778,6.693,34.8677,34.8677,0,0,0-.884,7.956,34.29772,34.29772,0,0,0,.884,7.829,20.77274,20.77274,0,0,0,2.778,6.694,14.3261,14.3261,0,0,0,4.8,4.609,14.61646,14.61646,0,0,0,13.702,0,14.53941,14.53941,0,0,0,4.735-4.609,20.79663,20.79663,0,0,0,2.77906-6.694,34.41276,34.41276,0,0,0,.884-7.829,34.98292,34.98292,0,0,0-.884-7.956m16.417,23.299a31.6504,31.6504,0,0,1-6.251,10.672,24.8952,24.8952,0,0,1-18.375,8.208,34.43084,34.43084,0,0,1-12.88095-2.273,16.34161,16.34161,0,0,1-8.588-7.703h-.252v8.335h-17.049v-84.865h17.933v27.531h.252a19.14388,19.14388,0,0,1,8.903-7.388,30.15213,30.15213,0,0,1,11.682-2.336,24.8951,24.8951,0,0,1,18.375,8.208,31.675,31.675,0,0,1,6.251,10.671,44.78284,44.78284,0,0,1,2.399,15.47,44.767,44.767,0,0,1-2.399,15.47m54.43-15.343a34.4094,34.4094,0,0,1-.884,7.829,20.79384,20.79384,0,0,1-2.778,6.694,14.55318,14.55318,0,0,1-4.736,4.609,14.61658,14.61658,0,0,1-13.702,0,14.32328,14.32328,0,0,1-4.79895-4.609,20.75037,20.75037,0,0,1-2.778-6.694,34.29606,34.29606,0,0,1-.884-7.829,34.866,34.866,0,0,1,.884-7.956,20.75419,20.75419,0,0,1,2.778-6.693,14.33616,14.33616,0,0,1,4.79895-4.61,14.61665,14.61665,0,0,1,13.702,0,14.56663,14.56663,0,0,1,4.736,4.61,20.79769,20.79769,0,0,1,2.778,6.693,34.97952,34.97952,0,0,1,.884,7.956m17.933-.127a44.757,44.757,0,0,0-2.4-15.47,31.675,31.675,0,0,0-6.251-10.671,24.89073,24.89073,0,0,0-18.374-8.208,30.14457,30.14457,0,0,0-11.682,2.336,19.13892,19.13892,0,0,0-8.903,7.388h-.253v-27.531h-17.933v84.865h17.049v-8.335h.253a16.336,16.336,0,0,0,8.587,7.703,34.44,34.44,0,0,0,12.882,2.273,24.89082,24.89082,0,0,0,18.374-8.208,31.6504,31.6504,0,0,0,6.251-10.672,44.7412,44.7412,0,0,0,2.4-15.47m53.046-7.577a19.67746,19.67746,0,0,0-2.589-6.693,14.38207,14.38207,0,0,0-4.925-4.736,14.79257,14.79257,0,0,0-7.64-1.831,13.7907,13.7907,0,0,0-12.439,6.567,19.63638,19.63638,0,0,0-2.589,6.693,39.20834,39.20834,0,0,0-.758,7.704,38.23272,38.23272,0,0,0,.758,7.64,20.30727,20.30727,0,0,0,2.589,6.693,13.76157,13.76157,0,0,0,4.862,4.736,14.82585,14.82585,0,0,0,7.577,1.768,15.18415,15.18415,0,0,0,7.64-1.768,13.62927,13.62927,0,0,0,4.925-4.736,20.35129,20.35129,0,0,0,2.589-6.693,38.16085,38.16085,0,0,0,.758-7.64,39.134,39.134,0,0,0-.758-7.704m16.291,21.848a30.66556,30.66556,0,0,1-6.819,10.797,29.69863,29.69863,0,0,1-10.671,6.883,38.71774,38.71774,0,0,1-13.955,2.399,38.195,38.195,0,0,1-13.892-2.399,29.78227,29.78227,0,0,1-10.608-6.883,30.6096,30.6096,0,0,1-6.819-10.797,39.54718,39.54718,0,0,1-2.4-14.144,40.07176,40.07176,0,0,1,2.4-14.207,29.85694,29.85694,0,0,1,17.427-17.807,37.30119,37.30119,0,0,1,13.892-2.462,37.81037,37.81037,0,0,1,13.955,2.462,29.734,29.734,0,0,1,17.49,17.807,40.09343,40.09343,0,0,1,2.4,14.207,39.56846,39.56846,0,0,1-2.4,14.144m62.607-36.872h13.134v-11.997h-13.134v-17.558h-17.933v17.558h-17.477v-17.558h-17.933v17.558h-10.86v11.997h10.86v40.534a16.674,16.674,0,0,0,1.642,7.956,11.68028,11.68028,0,0,0,4.483,4.673,18.60851,18.60851,0,0,0,6.567,2.21,52.331,52.331,0,0,0,7.89295.568q2.652,0,5.431-.126a43.02137,43.02137,0,0,0,5.051-.505v-13.892a24.48739,24.48739,0,0,1-2.652.379q-1.3905.1275-2.905.126-4.54652,0-6.061-1.515-1.51648-1.51651-1.516-6.062v-34.346h17.477v40.534a16.67324,16.67324,0,0,0,1.642,7.956,11.67978,11.67978,0,0,0,4.483,4.673,18.609,18.609,0,0,0,6.567,2.21,52.32171,52.32171,0,0,0,7.893.568c.591,0,1.215-.033,1.816-.042-2.241-1.309-4.473-3.402-4.473-8.118Z"/>
  <path class="cls-2" d="M816.71429,145.306a8.32648,8.32648,0,1,0,8.327-8.327,8.42942,8.42942,0,0,0-8.327,8.327"/>
</svg>
